<?xml version="1.0" standalone="no"?>
<!DOCTYPE svg PUBLIC "-//W3C//DTD SVG 20010904//EN"
 "http://www.w3.org/TR/2001/REC-SVG-20010904/DTD/svg10.dtd">
<svg version="1.0" xmlns="http://www.w3.org/2000/svg"
 width="1200.000000pt" height="1200.000000pt" viewBox="0 0 1200.000000 1200.000000"
 preserveAspectRatio="xMidYMid meet">
<metadata>
Created by potrace 1.11, written by Peter Selinger 2001-2013
</metadata>
<g transform="translate(0.000000,1200.000000) scale(0.100000,-0.100000)"
fill="#000000" stroke="none">
<path d="M7470 7360 c-274 -27 -506 -172 -601 -375 -51 -109 -73 -214 -73
-365 -1 -160 12 -227 64 -335 29 -61 55 -97 112 -153 94 -92 129 -117 439
-308 305 -187 362 -228 421 -293 73 -81 91 -128 96 -254 10 -246 -92 -400
-313 -475 -146 -49 -376 -56 -485 -13 -208 79 -385 291 -458 546 -37 129 -45
201 -39 347 l5 138 -33 0 c-18 0 -37 -6 -42 -12 -5 -7 -24 -69 -41 -138 -16
-69 -78 -313 -136 -544 -58 -230 -106 -427 -106 -438 0 -16 6 -19 37 -16 36 3
37 5 68 83 45 114 70 159 105 189 46 39 71 34 142 -29 137 -120 288 -208 420
-245 147 -42 370 -37 555 11 370 96 583 399 560 796 -7 121 -35 214 -91 302
-85 132 -189 208 -641 469 -336 194 -434 303 -443 494 -12 244 149 440 406
493 247 51 426 -31 577 -264 101 -157 165 -358 165 -523 l0 -58 40 0 c23 0 43
5 45 13 5 12 105 454 170 752 20 87 33 165 30 173 -7 18 -66 12 -76 -8 -4 -8
-21 -44 -38 -80 -48 -99 -90 -140 -146 -140 -31 0 -48 10 -151 91 -118 91
-218 142 -327 165 -73 15 -99 15 -217 4z"/>
<path d="M4255 7288 c-22 -71 -26 -89 -20 -98 4 -6 66 -10 160 -10 204 0 206
-2 161 -160 -26 -92 -77 -280 -241 -890 -59 -217 -129 -474 -155 -570 -26 -96
-71 -263 -100 -370 -75 -283 -88 -320 -129 -347 -32 -22 -44 -23 -191 -23
l-157 0 -11 -51 c-7 -29 -11 -54 -9 -56 5 -4 2119 -4 2123 0 2 2 20 54 39 117
95 299 258 817 262 833 4 14 -1 17 -35 17 -46 0 -51 -5 -82 -85 -38 -98 -145
-303 -210 -403 -81 -124 -195 -237 -285 -284 -149 -77 -231 -88 -661 -88 -340
0 -352 1 -378 21 -14 11 -26 26 -26 32 0 7 16 73 36 147 53 194 254 932 260
953 5 17 21 18 233 15 l228 -3 38 -29 c96 -73 113 -212 62 -500 -1 -7 16 -11
42 -11 l44 0 57 215 c32 118 85 321 119 450 34 129 78 292 97 361 19 69 34
131 34 137 0 7 -17 12 -43 12 l-43 0 -32 -107 c-48 -157 -94 -243 -168 -313
-93 -86 -115 -92 -391 -97 l-233 -5 0 22 c0 24 1 28 154 592 57 213 109 396
115 407 6 11 23 29 37 40 26 20 37 21 388 21 372 0 420 -4 491 -43 130 -71
186 -225 185 -507 -1 -74 -1 -141 0 -147 0 -21 78 -17 84 5 3 9 26 118 50 242
64 317 105 521 111 548 l5 22 -1005 0 c-796 0 -1006 -3 -1010 -12z"/>
</g>
</svg>
