<?xml version="1.0" standalone="no"?>
<!DOCTYPE svg PUBLIC "-//W3C//DTD SVG 20010904//EN"
 "http://www.w3.org/TR/2001/REC-SVG-20010904/DTD/svg10.dtd">
<svg version="1.0" xmlns="http://www.w3.org/2000/svg"
 width="1200.000000pt" height="1200.000000pt" viewBox="0 0 1200.000000 1200.000000"
 preserveAspectRatio="xMidYMid meet">
<metadata>
Created by potrace 1.11, written by Peter Selinger 2001-2013
</metadata>
<g transform="translate(0.000000,1200.000000) scale(0.100000,-0.100000)"
fill="#000000" stroke="none">
<path d="M6118 10245 c-2 -2 -43 -6 -93 -9 -80 -6 -189 -18 -280 -31 -30 -4
-281 -51 -320 -59 -252 -55 -573 -162 -810 -271 -120 -55 -209 -99 -215 -105
-3 -3 -36 -21 -73 -40 -38 -19 -76 -40 -85 -45 -9 -6 -39 -24 -67 -40 -97 -57
-250 -159 -364 -242 -31 -23 -178 -142 -256 -208 -90 -77 -313 -302 -412 -417
-48 -57 -91 -104 -95 -106 -5 -2 -8 -10 -8 -17 0 -7 -3 -15 -7 -17 -16 -7
-253 -328 -253 -342 0 -3 -22 -37 -48 -78 -26 -40 -53 -84 -60 -98 -7 -14 -22
-41 -33 -60 -50 -82 -258 -530 -265 -570 0 -3 -4 -12 -7 -20 -27 -65 -128
-402 -141 -470 -2 -14 -13 -65 -24 -115 -37 -168 -63 -330 -77 -485 -3 -30 -8
-82 -11 -115 -8 -72 -8 -476 0 -560 7 -71 18 -192 21 -220 17 -175 80 -487
135 -676 36 -123 78 -256 90 -284 4 -11 20 -51 36 -90 16 -38 28 -71 27 -72
-2 -3 71 -162 125 -273 105 -217 302 -527 462 -730 129 -164 185 -227 344
-386 169 -168 280 -266 441 -386 66 -49 133 -99 149 -111 16 -12 44 -31 62
-42 18 -11 97 -59 176 -107 79 -48 148 -88 153 -89 6 -1 30 -14 55 -29 105
-61 293 -144 470 -209 80 -30 154 -57 165 -62 11 -5 83 -26 160 -48 210 -59
386 -96 565 -121 108 -15 142 -19 225 -25 44 -4 96 -8 115 -11 45 -4 461 -4
520 1 25 2 83 6 130 9 47 3 94 8 105 10 11 2 45 7 76 10 31 4 67 9 80 11 13 3
65 12 114 20 235 40 530 124 785 222 298 115 595 273 873 465 105 73 299 222
347 268 9 8 33 30 55 48 157 132 406 400 556 599 49 65 93 123 97 128 12 16
76 108 87 127 6 9 42 70 82 135 200 329 339 648 449 1028 34 117 96 395 108
485 4 25 13 92 21 150 21 160 29 293 29 535 -1 383 -33 656 -120 1012 -34 142
-127 437 -158 505 -8 18 -27 65 -41 103 -29 74 -174 372 -226 465 -62 109
-164 267 -243 375 -74 102 -174 233 -186 245 -3 3 -41 46 -84 95 -414 468
-892 818 -1489 1089 -123 56 -412 162 -497 181 -8 2 -56 15 -107 29 -180 49
-482 106 -648 121 -33 3 -80 8 -105 11 -49 6 -576 14 -582 9z m582 -269 c74
-8 153 -17 190 -21 34 -4 120 -17 130 -20 17 -4 150 -26 152 -25 2 1 16 -3 31
-9 15 -6 42 -13 60 -16 116 -20 433 -120 587 -185 41 -17 84 -34 95 -37 30
-10 338 -164 355 -178 8 -7 40 -25 70 -41 118 -61 495 -328 570 -404 8 -8 44
-40 80 -70 152 -130 363 -357 505 -545 25 -33 50 -66 55 -72 31 -37 166 -243
227 -348 60 -101 143 -265 216 -425 42 -93 140 -359 152 -410 1 -9 14 -54 28
-100 24 -80 34 -118 43 -164 46 -233 64 -332 70 -381 3 -33 8 -71 10 -85 26
-197 26 -679 -1 -890 -1 -14 -6 -50 -9 -80 -9 -77 -63 -347 -91 -460 -23 -93
-83 -291 -103 -340 -6 -14 -20 -52 -32 -85 -26 -70 -27 -74 -76 -185 -243
-558 -652 -1101 -1102 -1466 -13 -10 -36 -29 -50 -42 -15 -13 -44 -35 -64 -49
-21 -14 -38 -30 -38 -34 0 -5 -5 -9 -11 -9 -6 0 -17 -6 -25 -14 -15 -16 -299
-206 -307 -206 -3 0 -34 -17 -68 -39 -155 -93 -577 -290 -659 -306 -8 -2 -49
-15 -90 -30 -41 -14 -82 -28 -90 -30 -8 -2 -56 -15 -105 -29 -164 -47 -388
-91 -574 -112 -30 -3 -64 -8 -75 -10 -32 -6 -299 -18 -401 -18 -102 1 -357 12
-395 18 -14 3 -49 7 -79 10 -76 9 -193 26 -211 31 -8 2 -32 6 -52 9 -184 27
-587 146 -763 226 -11 5 -58 25 -105 46 -454 197 -878 489 -1226 845 -160 163
-325 357 -404 474 -19 28 -36 52 -40 55 -3 3 -17 23 -30 45 -13 22 -27 42 -30
45 -7 6 -115 182 -151 245 -59 105 -154 302 -199 415 -28 69 -55 134 -60 145
-46 106 -151 490 -175 635 -3 19 -10 58 -15 85 -5 28 -12 73 -15 100 -3 28 -8
59 -10 70 -4 20 -10 78 -22 220 -14 166 -7 524 13 679 2 17 6 56 9 86 11 106
56 346 91 480 19 74 40 153 45 175 50 198 223 598 360 833 27 45 49 84 49 86
0 2 39 62 86 133 95 140 213 296 313 413 114 133 416 426 494 479 12 8 24 18
27 21 3 3 50 40 105 81 398 299 862 528 1335 658 85 23 327 77 380 84 19 3 67
10 105 16 94 13 143 19 250 26 50 4 92 9 94 11 5 5 515 -4 571 -10z"/>
<path d="M6358 9946 c-1 -2 -77 -6 -168 -10 -91 -4 -183 -8 -205 -11 -50 -5
-118 -14 -170 -21 -22 -3 -51 -7 -65 -8 -14 -2 -54 -9 -90 -16 -36 -7 -74 -14
-85 -15 -11 -2 -76 -17 -145 -35 -69 -17 -129 -32 -135 -34 -91 -23 -385 -124
-400 -137 -5 -5 -14 -9 -21 -9 -37 0 -565 -267 -594 -300 -3 -3 -36 -26 -75
-49 -70 -44 -271 -190 -323 -235 -15 -13 -67 -57 -117 -99 -93 -77 -275 -260
-380 -381 -33 -38 -65 -74 -70 -80 -6 -6 -24 -29 -40 -51 -17 -22 -49 -64 -73
-93 -50 -63 -214 -311 -262 -397 -121 -217 -183 -345 -246 -510 -19 -49 -38
-99 -43 -110 -44 -104 -144 -462 -166 -595 -3 -19 -12 -71 -20 -115 -8 -44
-17 -105 -20 -135 -3 -30 -7 -66 -10 -80 -18 -106 -25 -536 -11 -735 5 -60 10
-113 12 -116 1 -3 6 -35 9 -72 7 -70 8 -75 18 -122 3 -16 9 -48 12 -69 4 -32
22 -118 40 -197 41 -184 109 -397 189 -596 46 -115 177 -384 221 -453 14 -22
25 -44 25 -50 0 -5 5 -10 10 -10 6 0 10 -6 10 -12 0 -18 225 -356 250 -378 3
-3 23 -27 43 -53 95 -126 265 -310 423 -457 99 -92 135 -122 244 -208 58 -45
110 -86 115 -90 28 -23 276 -182 315 -203 25 -13 47 -27 50 -31 15 -20 469
-237 510 -244 3 0 19 -6 35 -13 92 -39 385 -130 465 -144 14 -3 52 -12 85 -20
33 -8 76 -18 95 -21 19 -3 46 -8 60 -11 14 -3 41 -8 60 -11 19 -3 46 -7 60 -9
14 -2 51 -7 83 -10 32 -4 66 -8 75 -10 128 -24 649 -24 842 0 19 3 58 7 85 10
114 13 304 50 461 90 454 117 831 287 1239 558 66 44 122 83 125 86 3 4 21 18
40 31 82 57 294 243 410 360 164 165 245 256 330 370 14 18 30 38 36 44 22 24
164 234 164 245 0 6 3 11 8 11 4 0 21 23 37 51 17 28 37 63 46 78 39 65 76
134 126 236 30 61 58 117 62 126 5 8 23 51 41 95 18 43 38 93 45 109 80 185
198 627 220 825 3 25 7 59 10 75 5 32 9 75 25 245 10 97 13 429 5 510 -2 19
-6 69 -10 110 -4 41 -8 86 -10 100 -8 69 -17 131 -26 190 -6 36 -13 81 -16
100 -17 129 -132 530 -197 688 -14 34 -37 89 -50 123 -34 82 -137 301 -152
319 -6 8 -13 20 -15 25 -3 9 -70 124 -124 213 -28 47 -108 168 -114 172 -4 3
-21 25 -38 50 -17 25 -39 55 -49 67 -11 12 -30 37 -44 55 -122 160 -375 422
-540 558 -41 34 -86 72 -100 84 -14 12 -41 32 -60 46 -19 13 -37 27 -40 30 -3
4 -34 26 -70 50 -36 24 -74 52 -84 62 -11 10 -24 18 -29 18 -4 0 -23 11 -41
25 -18 14 -38 25 -44 25 -6 0 -12 4 -14 8 -11 27 -421 238 -608 312 -190 76
-538 180 -685 206 -16 2 -66 11 -110 19 -90 16 -125 21 -205 30 -104 12 -135
15 -285 21 -82 3 -155 7 -162 9 -6 2 -13 2 -15 1z m372 -90 c34 -5 85 -12 160
-22 38 -5 163 -24 195 -30 79 -15 140 -28 204 -46 41 -11 85 -22 99 -24 14 -3
30 -8 36 -12 6 -3 19 -8 29 -9 57 -9 333 -111 487 -180 676 -303 1260 -804
1663 -1424 98 -152 286 -489 272 -489 -3 0 1 -10 9 -22 28 -43 176 -437 191
-508 2 -8 13 -49 24 -90 19 -71 62 -264 76 -340 17 -101 28 -180 42 -320 10
-93 10 -578 1 -680 -10 -106 -31 -260 -43 -320 -3 -14 -10 -52 -16 -85 -62
-346 -219 -783 -394 -1095 -85 -152 -99 -177 -146 -250 -48 -76 -165 -244
-184 -264 -6 -6 -28 -33 -50 -61 -21 -27 -48 -60 -59 -71 -12 -12 -37 -41 -56
-65 -65 -83 -341 -352 -445 -434 -27 -22 -51 -43 -53 -47 -2 -5 -10 -8 -18 -8
-8 0 -14 -4 -14 -9 0 -4 -28 -28 -62 -52 -35 -23 -65 -46 -68 -49 -3 -3 -21
-17 -40 -30 -19 -14 -39 -28 -45 -32 -5 -5 -32 -23 -60 -40 -27 -17 -61 -39
-75 -48 -15 -10 -48 -30 -75 -44 -28 -15 -66 -36 -85 -47 -61 -37 -290 -151
-330 -164 -3 -1 -16 -7 -30 -12 -122 -53 -334 -131 -406 -148 -10 -3 -79 -20
-151 -39 -73 -19 -148 -37 -165 -40 -18 -3 -64 -12 -103 -20 -38 -8 -92 -17
-120 -21 -27 -3 -79 -10 -115 -15 -210 -29 -688 -32 -870 -5 -14 2 -47 6 -75
10 -91 11 -179 26 -345 60 -236 48 -663 196 -850 294 -8 4 -49 25 -90 46 -41
22 -77 42 -80 45 -3 3 -16 11 -30 18 -83 41 -343 206 -373 237 -9 8 -20 15
-26 15 -5 0 -14 6 -18 13 -4 7 -19 20 -33 29 -14 9 -35 25 -47 37 -12 12 -25
21 -28 21 -26 0 -354 310 -477 450 -101 116 -123 142 -168 200 -19 25 -37 47
-41 50 -11 10 -176 256 -224 335 -52 85 -193 360 -237 460 -165 382 -275 834
-305 1255 -13 190 -6 584 12 690 2 14 7 47 10 74 4 42 25 182 40 268 6 32 34
147 64 263 105 400 309 836 557 1192 59 85 208 281 223 293 3 3 24 25 45 50
123 142 293 305 501 479 43 36 243 181 250 181 3 0 11 5 18 10 41 36 267 169
402 238 137 70 379 171 480 201 22 7 49 16 60 21 31 13 243 74 293 85 9 2 46
10 82 19 117 27 345 61 485 72 44 3 82 8 84 10 6 5 591 -4 631 -10z"/>
<path d="M6179 9826 c-2 -2 -56 -7 -119 -10 -133 -8 -141 -9 -315 -37 -106
-17 -229 -41 -325 -64 -299 -72 -676 -224 -955 -385 -152 -87 -386 -244 -480
-321 -518 -427 -868 -876 -1128 -1449 -53 -117 -154 -388 -173 -465 -1 -5 -17
-64 -34 -129 -18 -66 -34 -129 -36 -140 -7 -34 -34 -183 -40 -224 -3 -20 -7
-47 -9 -58 -2 -12 -6 -48 -10 -80 -4 -33 -8 -70 -11 -84 -16 -101 -21 -436
-10 -623 39 -676 269 -1347 660 -1922 33 -49 63 -92 66 -95 3 -3 27 -34 55
-70 148 -194 379 -438 560 -591 286 -241 592 -434 921 -580 154 -68 164 -72
348 -135 183 -63 435 -124 611 -149 28 -4 58 -9 69 -11 10 -2 44 -6 75 -9 31
-4 66 -8 79 -10 32 -5 315 -19 382 -19 154 1 363 15 490 34 36 5 88 12 115 15
28 4 66 10 85 15 19 5 53 11 75 15 22 3 47 7 55 10 8 2 26 6 40 9 101 19 403
113 550 171 376 148 818 418 1105 674 55 50 323 318 365 366 113 128 242 299
335 445 26 41 56 87 66 102 11 15 19 30 19 33 0 3 11 23 25 46 38 59 167 320
209 424 21 50 42 101 48 115 21 51 102 304 114 355 1 6 11 46 22 90 12 44 23
94 26 110 3 17 8 41 11 55 9 43 34 202 40 255 3 28 8 59 10 70 19 92 26 527
11 720 -26 341 -101 692 -219 1015 -67 184 -196 465 -249 543 -11 15 -16 27
-12 27 4 0 0 8 -8 18 -8 9 -34 51 -58 92 -24 41 -46 77 -49 80 -3 3 -33 45
-66 94 -50 76 -151 211 -222 296 -103 125 -339 362 -464 465 -13 11 -47 39
-74 61 -321 265 -781 515 -1208 656 -51 16 -99 31 -107 33 -8 2 -58 15 -110
29 -103 28 -224 54 -280 62 -19 2 -46 7 -60 9 -37 7 -226 33 -295 40 -66 7
-510 16 -516 11z"/>
</g>
</svg>
